<svg xmlns="http://www.w3.org/2000/svg" viewBox="0 0 24 24" fill="none" stroke="currentColor" stroke-width="2" stroke-linecap="round" stroke-linejoin="round">
  <path d="M17.5 6.5L17.5 6.5C18.8807 6.5 20 7.61929 20 9V15C20 16.3807 18.8807 17.5 17.5 17.5H6.5C5.11929 17.5 4 16.3807 4 15V9C4 7.61929 5.11929 6.5 6.5 6.5H17.5Z" />
  <path d="M16 4H8C5.79086 4 4 5.79086 4 8V16C4 18.2091 5.79086 20 8 20H16C18.2091 20 20 18.2091 20 16V8C20 5.79086 18.2091 4 16 4Z" />
  <path d="M17.5 12.5C17.7761 12.5 18 12.2761 18 12C18 11.7239 17.7761 11.5 17.5 11.5H17C16.7239 11.5 16.5 11.7239 16.5 12C16.5 12.2761 16.7239 12.5 17 12.5H17.5Z" />
  <path fill-rule="evenodd" clip-rule="evenodd" d="M12 17C14.2091 17 16 15.2091 16 13C16 10.7909 14.2091 9 12 9C9.79086 9 8 10.7909 8 13C8 15.2091 9.79086 17 12 17Z" />
</svg>
